<?xml version="1.0" encoding="UTF-8"?>
<svg width="16" height="17" viewBox="0 0 16 17" fill="none" xmlns="http://www.w3.org/2000/svg">
	<path d="M12.4005 9.19142V11.6296H10.5625V11.4371C10.5625 9.8139 10.5655 8.19069 10.5625 6.56748C10.5625 6.14846 10.6972 5.80948 11.0814 5.6196C11.4656 5.42972 11.8409 5.47313 12.2037 5.69963C12.5 5.88573 12.6486 6.18319 12.7975 6.48179C13.0661 7.01971 13.3351 7.55726 13.6385 8.09103V5.62677H15.4914C15.4941 5.68906 15.5 5.75549 15.5 5.82231C15.5 7.44552 15.5 9.06874 15.5 10.6919C15.5 11.0985 15.3725 11.4424 15.0029 11.6383C14.6287 11.8376 14.2292 11.829 13.8865 11.5787C13.678 11.4226 13.5044 11.224 13.377 10.9958C13.0694 10.4428 12.8012 9.86788 12.5165 9.30202C12.4952 9.25937 12.4694 9.2186 12.4454 9.17708L12.4005 9.19142Z" fill="#106EBE"/>
	<path d="M7.81383 9.80394H7.24443V8.28605C7.39108 8.28605 7.5325 8.28341 7.67354 8.28605C7.76669 8.28869 7.81196 8.25547 7.80747 8.15506C7.79962 7.98594 7.80747 7.81532 7.79213 7.64696C7.76856 7.40083 7.60508 7.24946 7.38061 7.24191C7.15614 7.23436 6.99153 7.36761 6.94701 7.6194C6.93283 7.71939 6.92732 7.82044 6.93055 7.92139C6.93055 9.09136 6.93055 10.2616 6.93055 11.4321V11.6299H5.09328C5.08992 11.5736 5.08393 11.5196 5.08393 11.4657C5.08393 10.2267 5.08393 8.98768 5.08393 7.7485C5.0858 6.49636 6.06149 5.51338 7.30541 5.50885C8.49359 5.50432 9.28035 6.10037 9.59236 7.24833C9.63089 7.38087 9.65202 7.51793 9.65521 7.65602C9.65933 8.94553 9.65708 10.235 9.65521 11.5242C9.65521 11.5547 9.64998 11.5853 9.64624 11.6287H7.81308L7.81383 9.80394Z" fill="#106EBE"/>
	<path d="M4.35631 9.92455V11.6402C4.02934 11.6402 3.70199 11.6372 3.37464 11.6402C2.98741 11.6492 2.60336 11.5679 2.2523 11.4028C1.1352 10.8687 0.546347 9.97022 0.504446 8.7279C0.467035 7.58448 0.923078 6.67888 1.87632 6.04771C2.31772 5.75652 2.83536 5.6052 3.36267 5.61322C3.69189 5.61322 4.0211 5.61322 4.36043 5.61322V7.30098C4.08021 7.31646 3.80487 7.3074 3.53738 7.35081C3.02709 7.43386 2.64362 7.7098 2.48724 8.22282C2.33086 8.73583 2.42888 9.19637 2.82619 9.56782C3.07273 9.79846 3.37651 9.90756 3.71059 9.92153C3.92084 9.93134 4.13184 9.92455 4.35631 9.92455Z" fill="#106EBE"/>
</svg>
