<?xml version="1.0" encoding="UTF-8"?>
<svg width="16" height="17" viewBox="0 0 16 17" fill="none" xmlns="http://www.w3.org/2000/svg">
	<path d="M14.6667 3.16663H1.33337V13.1666H6.33337L8.00004 14.8333L9.66671 13.1666H14.6667V3.16663Z" stroke="#8FB3D9" stroke-width="1.33333" stroke-linecap="round" stroke-linejoin="round"/>
	<path d="M5.55534 6.40987L5.3834 7.55624H7.1978L7.0579 8.48901H5.2435L4.95515 10.4115H3.86075L4.60191 5.46998H7.65471L7.51374 6.40987H5.55534ZM10.1968 5.46998C10.5616 5.46998 10.8878 5.50321 11.1754 5.56966C11.4686 5.63137 11.7072 5.75242 11.8913 5.9328C12.0803 6.11318 12.2082 6.36477 12.2749 6.68756C12.3417 7.01035 12.3367 7.42808 12.2598 7.94074C12.1879 8.42018 12.0705 8.81892 11.9076 9.13696C11.7454 9.45026 11.542 9.70184 11.2976 9.89172C11.0579 10.0816 10.7808 10.2169 10.4663 10.2976C10.1573 10.3735 9.8204 10.4115 9.4556 10.4115H7.742L8.48316 5.46998H10.1968ZM9.53684 9.48586C9.76724 9.48586 9.97 9.46213 10.1451 9.41466C10.325 9.36719 10.4791 9.28412 10.6073 9.16544C10.7403 9.04677 10.8481 8.88775 10.9308 8.68838C11.0183 8.48901 11.0845 8.2398 11.1294 7.94074C11.1771 7.6227 11.1871 7.36399 11.1594 7.16462C11.1324 6.96051 11.0699 6.80149 10.9717 6.68756C10.8791 6.56889 10.7496 6.48819 10.5833 6.44547C10.4217 6.40275 10.2281 6.38138 10.0025 6.38138H9.44086L8.97524 9.48586H9.53684Z" fill="#106EBE"/>
</svg>
