<?xml version="1.0" encoding="UTF-8"?>
<svg width="16" height="16" viewBox="0 0 16 16" fill="none" xmlns="http://www.w3.org/2000/svg">
	<path d="M14.3049 2.23153L1.53458 7.15934C0.81491 7.43704 0.832938 7.84062 1.57127 8.0597L4.65686 8.97525L5.91142 12.7082C6.07567 13.1969 6.50475 13.3 6.87177 12.9364L8.49028 11.3331L11.6852 13.6744C12.1003 13.9785 12.5271 13.8185 12.6391 13.3136L14.9705 2.80819C15.0822 2.30475 14.7847 2.04641 14.3049 2.23153ZM12.3616 4.60677L6.91439 9.46005C6.81644 9.54732 6.72781 9.72025 6.7142 9.84828L6.47372 12.1092C6.44672 12.3631 6.35918 12.3735 6.27845 12.1302L5.22443 8.95303C5.1832 8.82874 5.23968 8.67639 5.34978 8.61036L12.2578 4.4669C12.698 4.20287 12.7449 4.26522 12.3616 4.60677Z" fill="#106EBE"/>
</svg>
