<?xml version="1.0" encoding="UTF-8"?>
<svg width="16" height="17" viewBox="0 0 16 17" fill="none" xmlns="http://www.w3.org/2000/svg">
	<path d="M6.42619 5.97768H5.73202H4.08403H3.38456L2.56851 7.29713L1.80545 8.51591H1.81075L1 9.81946H1.69947H3.34746H4.04164L5.61014 7.29713L5.62074 7.27594L6.42619 5.97768Z" fill="#E55927"/>
	<path d="M13.8024 3.05791H11.3914H11.3861H2.91823L1.90082 4.80658H8.42921H8.43451H10.3951H10.6018H10.6071H11.6775H11.6828L11.0893 5.82399L10.2309 7.29712H10.2256L6.34669 13.9421H7.85161H8.64647L13.3838 5.82399H13.3891L15 3.05791H14.9947H13.8024Z" fill="#666767"/>
	<path d="M5.54656 9.81947H4.05224H4.04694L2.26117 12.6915H3.87207H4.93187L6.08176 10.8157L6.70175 9.81947H5.54656Z" fill="#666767"/>
</svg>
